<svg width="105" height="64" viewBox="0 0 105 64" fill="none" xmlns="http://www.w3.org/2000/svg">
<path d="M2.78126 3.33664C4.24632 1.80172 6.2331 0.939453 8.3047 0.939453C10.3763 0.939453 12.3631 1.80172 13.8281 3.33664L52.5 43.8648L91.1719 3.33664C92.6453 1.84522 94.6188 1.01997 96.6672 1.03862C98.7156 1.05728 100.675 1.91835 102.124 3.43638C103.572 4.95441 104.394 7.00793 104.412 9.15467C104.429 11.3014 103.642 13.3696 102.219 14.9138L58.0234 61.2305C56.5584 62.7654 54.5716 63.6276 52.5 63.6276C50.4284 63.6276 48.4416 62.7654 46.9766 61.2305L2.78126 14.9138C1.31664 13.3784 0.493866 11.2962 0.493866 9.1252C0.493866 6.95417 1.31664 4.87203 2.78126 3.33664V3.33664Z" fill="black"/>
</svg>
