<svg width="36" height="42" viewBox="0 0 36 42" fill="#A7AA00" xmlns="http://www.w3.org/2000/svg">
<path fill-rule="evenodd" clip-rule="evenodd" d="M20.8333 0V11.4583C20.8333 12.2871 21.1626 13.082 21.7486 13.668C22.3347 14.2541 23.1295 14.5833 23.9583 14.5833H35.4167V29.1667C35.4167 30.2717 34.9777 31.3315 34.1963 32.1129C33.4149 32.8943 32.3551 33.3333 31.25 33.3333H27.0833V37.5C27.0833 38.6051 26.6443 39.6649 25.8629 40.4463C25.0815 41.2277 24.0217 41.6667 22.9167 41.6667H4.16667C3.0616 41.6667 2.00179 41.2277 1.22039 40.4463C0.438987 39.6649 0 38.6051 0 37.5V12.5C0 11.3949 0.438987 10.3351 1.22039 9.55372C2.00179 8.77232 3.0616 8.33333 4.16667 8.33333H8.33333V4.16667C8.33333 3.0616 8.77232 2.00179 9.55372 1.22039C10.3351 0.438987 11.3949 0 12.5 0H20.8333ZM8.33333 12.5H4.16667V37.5H22.9167V33.3333H12.5C11.3949 33.3333 10.3351 32.8943 9.55372 32.1129C8.77232 31.3315 8.33333 30.2717 8.33333 29.1667V12.5ZM25 0.0895833C25.7893 0.25699 26.5131 0.649982 27.0833 1.22083L34.1958 8.33333C34.7667 8.90359 35.1597 9.62734 35.3271 10.4167H25V0.0895833Z" fill="#A7AA00"/>
</svg>
