<svg width="47" height="47" viewBox="0 0 47 47" fill="#A7AA00" xmlns="http://www.w3.org/2000/svg">
  <path
    d="M23.4359 0C15.7734 0 9.86406 2.58437 5.87969 6.91094C1.91562 11.2156 0 17.0906 0 23.4359C0 27.7641 0.890625 31.8734 2.71562 35.4141C3.24372 34.3637 3.98188 33.4331 4.88437 32.6797C3.72031 29.9375 3.125 26.8031 3.125 23.4375C3.125 17.7031 4.85312 12.6406 8.17969 9.02969C11.4844 5.4375 16.5125 3.125 23.4359 3.125C30.3578 3.125 35.3859 5.4375 38.6922 9.02812C42.0187 12.6391 43.7469 17.7 43.7469 23.4344C43.7469 29.1703 42.0187 34.2312 38.6922 37.8437C35.3859 41.4344 30.3594 43.7469 23.4359 43.7469C22.9422 43.7469 22.4578 43.7344 21.9828 43.7109C21.9003 43.7869 21.8137 43.8584 21.7234 43.925C21.8697 44.4045 21.9111 44.9098 21.8448 45.4067C21.7784 45.9036 21.606 46.3804 21.3391 46.8047C22.0219 46.8484 22.7219 46.8719 23.4359 46.8719C31.0984 46.8719 37.0078 44.2875 40.9906 39.9609C44.9547 35.6562 46.8719 29.7812 46.8719 23.4359C46.8719 17.0906 44.9547 11.2156 40.9906 6.91094C37.0062 2.58437 31.0984 0 23.4375 0H23.4359Z"
    fill="#A7AA00"/>
  <path
    d="M19.3579 46.6094C19.6584 46.4339 19.9059 46.1805 20.0742 45.8758C20.2424 45.5712 20.3252 45.2268 20.3136 44.879C20.3021 44.5311 20.1967 44.1929 20.0087 43.9001C19.8206 43.6073 19.5569 43.3708 19.2454 43.2156L18.7501 42.9688H19.8751C20.2236 42.9687 20.5621 42.852 20.8367 42.6374C21.1114 42.4228 21.3064 42.1226 21.3907 41.7844L21.4954 41.3594C21.5406 41.1796 21.5441 40.9918 21.5058 40.8105C21.4674 40.6291 21.3882 40.4588 21.2742 40.3127C21.1601 40.1665 21.0142 40.0483 20.8476 39.9671C20.6809 39.8858 20.498 39.8436 20.3126 39.8438L20.8282 39.5859C21.1426 39.4281 21.4069 39.186 21.5916 38.8866C21.7764 38.5873 21.8742 38.2424 21.8742 37.8906C21.8742 37.5388 21.7764 37.194 21.5916 36.8946C21.4069 36.5952 21.1426 36.3531 20.8282 36.1953L20.3126 35.9375H23.047C23.565 35.9375 24.0617 35.7317 24.428 35.3654C24.7943 34.9992 25.0001 34.5024 25.0001 33.9844C25.0001 33.4664 24.7943 32.9696 24.428 32.6033C24.0617 32.237 23.565 32.0312 23.047 32.0312H14.0626V27.25C14.0626 26.6533 13.8255 26.081 13.4036 25.659C12.9816 25.2371 12.4093 25 11.8126 25C10.5001 25 9.46102 26.1219 9.44227 27.4359C9.41102 29.5625 9.11727 32.3781 7.81258 32.8125C3.12509 34.375 1.56259 41.4062 5.46883 44.5312C8.42196 46.8953 11.3766 46.8844 13.672 46.875H18.3813C18.7376 46.875 19.0704 46.7781 19.3579 46.6094ZM11.1657 8.04062C11.786 7.42187 13.4845 6.25 15.6251 6.25C17.7657 6.25 19.4641 7.42187 20.0845 8.04062C20.2312 8.18732 20.3136 8.38629 20.3136 8.59375C20.3136 8.80121 20.2312 9.00018 20.0845 9.14688C19.9378 9.29357 19.7388 9.37599 19.5313 9.37599C19.3239 9.37599 19.1249 9.29357 18.9782 9.14688C18.5563 8.725 17.2345 7.8125 15.6251 7.8125C14.0157 7.8125 12.6923 8.725 12.272 9.14688C12.1993 9.21951 12.1131 9.27713 12.0182 9.31644C11.9233 9.35575 11.8216 9.37599 11.7188 9.37599C11.6161 9.37599 11.5144 9.35575 11.4195 9.31644C11.3246 9.27713 11.2383 9.21951 11.1657 9.14688C11.0931 9.07424 11.0355 8.988 10.9961 8.8931C10.9568 8.79819 10.9366 8.69647 10.9366 8.59375C10.9366 8.49103 10.9568 8.38931 10.9961 8.2944C11.0355 8.1995 11.0931 8.11326 11.1657 8.04062V8.04062ZM26.8438 11.1188C27.5782 10.5063 29.5626 9.375 32.0313 9.375C34.5001 9.375 36.4845 10.5063 37.2188 11.1188C37.3723 11.253 37.4672 11.442 37.4833 11.6454C37.4993 11.8487 37.4352 12.0502 37.3046 12.2069C37.174 12.3636 36.9874 12.463 36.7845 12.4839C36.5816 12.5048 36.3786 12.4455 36.2188 12.3187C35.7032 11.8906 34.0626 10.9375 32.0313 10.9375C30.0001 10.9375 28.3595 11.8906 27.8438 12.3187C27.6841 12.4455 27.4811 12.5048 27.2782 12.4839C27.0753 12.463 26.8886 12.3636 26.7581 12.2069C26.6275 12.0502 26.5634 11.8487 26.5794 11.6454C26.5954 11.442 26.6903 11.253 26.8438 11.1188ZM14.0626 21.0938C15.3058 21.0938 16.4981 20.5999 17.3771 19.7208C18.2562 18.8417 18.7501 17.6495 18.7501 16.4062C18.7501 15.163 18.2562 13.9708 17.3771 13.0917C16.4981 12.2126 15.3058 11.7188 14.0626 11.7188C12.8194 11.7188 11.6271 12.2126 10.748 13.0917C9.86894 13.9708 9.37508 15.163 9.37508 16.4062C9.37508 17.6495 9.86894 18.8417 10.748 19.7208C11.6271 20.5999 12.8194 21.0937 14.0626 21.0938V21.0938Z"
    fill="#A7AA00"/>
  <path
    d="M35.9373 16.4062C35.9373 17.6495 35.4435 18.8417 34.5644 19.7208C33.6853 20.5999 32.493 21.0938 31.2498 21.0938C30.0066 21.0938 28.8144 20.5999 27.9353 19.7208C27.0562 18.8417 26.5623 17.6495 26.5623 16.4062C26.5623 15.163 27.0562 13.9708 27.9353 13.0917C28.8144 12.2126 30.0066 11.7188 31.2498 11.7188C32.493 11.7188 33.6853 12.2126 34.5644 13.0917C35.4435 13.9708 35.9373 15.163 35.9373 16.4062V16.4062ZM19.8545 29.2297C20.3401 28.7626 20.9293 28.417 21.574 28.2212C22.2187 28.0254 22.9006 27.985 23.5639 28.1031C25.4717 28.4281 26.2686 29.4 26.7077 30.3453C26.8848 30.7168 27.2014 31.0033 27.5887 31.1428C27.9759 31.2822 28.4025 31.2632 28.7758 31.0899C29.1491 30.9166 29.439 30.6031 29.5824 30.2173C29.7259 29.8316 29.7114 29.4048 29.542 29.0297C28.7373 27.2984 27.1577 25.5453 24.092 25.0219C22.936 24.8194 21.7483 24.895 20.6273 25.2425C19.5062 25.59 18.484 26.1994 17.6452 27.0203C17.3605 27.315 17.203 27.7097 17.2066 28.1194C17.2102 28.5291 17.3745 28.921 17.6642 29.2107C17.9539 29.5004 18.3458 29.6647 18.7555 29.6682C19.1651 29.6718 19.5598 29.5143 19.8545 29.2297Z"
    fill="#A7AA00"/>
</svg>
